<?xml version="1.0" encoding="UTF-8" standalone="no"?>
<svg
   xmlns:dc="http://purl.org/dc/elements/1.1/"
   xmlns:cc="http://creativecommons.org/ns#"
   xmlns:rdf="http://www.w3.org/1999/02/22-rdf-syntax-ns#"
   xmlns:svg="http://www.w3.org/2000/svg"
   xmlns="http://www.w3.org/2000/svg"
   xmlns:sodipodi="http://sodipodi.sourceforge.net/DTD/sodipodi-0.dtd"
   xmlns:inkscape="http://www.inkscape.org/namespaces/inkscape"
   viewBox="0 0 300 300"
   preserveAspectRatio="xMinYMin meet"
   version="1.1"
   id="svg6"
   sodipodi:docname="mail2.svg"
   width="300"
   height="300"
   inkscape:export-filename="/Users/cheyennegoh/Downloads/email-green.png"
   inkscape:export-xdpi="96"
   inkscape:export-ydpi="96"
   inkscape:version="0.92.2 5c3e80d, 2017-08-06">
  <metadata
     id="metadata12">
    <rdf:RDF>
      <cc:Work
         rdf:about="">
        <dc:format>image/svg+xml</dc:format>
        <dc:type
           rdf:resource="http://purl.org/dc/dcmitype/StillImage" />
        <dc:title>Mail Icon</dc:title>
      </cc:Work>
    </rdf:RDF>
  </metadata>
  <defs
     id="defs10" />
  <sodipodi:namedview
     pagecolor="#ffffff"
     bordercolor="#666666"
     borderopacity="1"
     objecttolerance="10"
     gridtolerance="10"
     guidetolerance="10"
     inkscape:pageopacity="0"
     inkscape:pageshadow="2"
     inkscape:window-width="1366"
     inkscape:window-height="723"
     id="namedview8"
     showgrid="false"
     inkscape:zoom="0.53792852"
     inkscape:cx="-353.20678"
     inkscape:cy="219.36"
     inkscape:window-x="0"
     inkscape:window-y="1"
     inkscape:window-maximized="1"
     inkscape:current-layer="svg6" />
  <title
     id="title2">Mail Icon</title>
  <path
     id="path4"
     style="fill:#000000;stroke:none;stroke-width:0.47619048;fill-opacity:1"
     d="M 65.9375,78.571362 150,141.1904 234.0625,78.571362 H 150 Z M 50,90.446359 V 207.02373 l 61.99405,-70.3869 z m 200,0 L 188.00595,136.63683 250,207.02373 Z M 127.33631,148.05053 62.693452,221.4285 H 150 237.30655 L 172.66369,148.05053 150,164.9404 Z M 300,150 A 150,150 0 0 1 150,300 150,150 0 0 1 0,150 150,150 0 0 1 150,0 150,150 0 0 1 300,150 Z"
     inkscape:export-xdpi="96"
     inkscape:export-ydpi="96" />
</svg>
