<?xml version="1.0" encoding="UTF-8" standalone="no"?>
<!-- Generator: Adobe Illustrator 16.0.0, SVG Export Plug-In . SVG Version: 6.00 Build 0)  -->

<svg
   xmlns:dc="http://purl.org/dc/elements/1.1/"
   xmlns:cc="http://creativecommons.org/ns#"
   xmlns:rdf="http://www.w3.org/1999/02/22-rdf-syntax-ns#"
   xmlns:svg="http://www.w3.org/2000/svg"
   xmlns="http://www.w3.org/2000/svg"
   xmlns:sodipodi="http://sodipodi.sourceforge.net/DTD/sodipodi-0.dtd"
   xmlns:inkscape="http://www.inkscape.org/namespaces/inkscape"
   version="1.1"
   id="Layer_1"
   x="0px"
   y="0px"
   width="300"
   height="300"
   viewBox="0 0 299.99999 300.00001"
   enable-background="new 0 0 266.893 266.895"
   xml:space="preserve"
   sodipodi:docname="F_icon.svg"
   inkscape:export-filename="/Users/cheyennegoh/Downloads/facebook-white.png"
   inkscape:export-xdpi="96"
   inkscape:export-ydpi="96"
   inkscape:version="0.92.2 5c3e80d, 2017-08-06"><metadata
     id="metadata9"><rdf:RDF><cc:Work
         rdf:about=""><dc:format>image/svg+xml</dc:format><dc:type
           rdf:resource="http://purl.org/dc/dcmitype/StillImage" /><dc:title /></cc:Work></rdf:RDF></metadata><defs
     id="defs7" /><sodipodi:namedview
     pagecolor="#ffffff"
     bordercolor="#666666"
     borderopacity="1"
     objecttolerance="10"
     gridtolerance="10"
     guidetolerance="10"
     inkscape:pageopacity="0"
     inkscape:pageshadow="2"
     inkscape:window-width="1366"
     inkscape:window-height="724"
     id="namedview5"
     showgrid="false"
     inkscape:zoom="1.2505083"
     inkscape:cx="36.243275"
     inkscape:cy="114.8383"
     inkscape:window-x="115"
     inkscape:window-y="0"
     inkscape:window-maximized="0"
     inkscape:current-layer="Layer_1" /><path
     style="opacity:1;fill:#000000;fill-opacity:1;fill-rule:evenodd;stroke:none;stroke-width:3.40205264"
     d="M 150 0 A 150 150 0 0 0 0 150 A 150 150 0 0 0 150 300 A 150 150 0 0 0 156.45703 299.77148 L 156.45703 195.0625 L 121.14453 195.0625 L 121.14453 154.16602 L 156.45703 154.16602 L 156.45703 124.00586 C 156.45703 89.006216 177.83356 69.947266 209.05664 69.947266 C 224.0126 69.947266 236.86798 71.062159 240.61328 71.560547 L 240.61328 108.13867 L 218.95703 108.14648 C 201.97807 108.14648 198.69141 116.21624 198.69141 128.05664 L 198.69141 154.16602 L 239.1875 154.16602 L 233.91406 195.0625 L 198.69141 195.0625 L 198.69141 291.6875 A 150 150 0 0 0 300 150 A 150 150 0 0 0 150 0 z "
     id="path4512"
     inkscape:export-xdpi="96"
     inkscape:export-ydpi="96" /></svg>