<?xml version="1.0" encoding="UTF-8" standalone="no"?>
<!-- Created with Inkscape (http://www.inkscape.org/) -->

<svg
   xmlns:dc="http://purl.org/dc/elements/1.1/"
   xmlns:cc="http://creativecommons.org/ns#"
   xmlns:rdf="http://www.w3.org/1999/02/22-rdf-syntax-ns#"
   xmlns:svg="http://www.w3.org/2000/svg"
   xmlns="http://www.w3.org/2000/svg"
   xmlns:sodipodi="http://sodipodi.sourceforge.net/DTD/sodipodi-0.dtd"
   xmlns:inkscape="http://www.inkscape.org/namespaces/inkscape"
   version="1.1"
   id="svg2"
   xml:space="preserve"
   width="300"
   height="300"
   viewBox="0 0 299.99999 300"
   sodipodi:docname="GitHub-Mark.svg"
   inkscape:version="0.92.2 5c3e80d, 2017-08-06"
   inkscape:export-filename="/Users/cheyennegoh/Desktop/github-white.png"
   inkscape:export-xdpi="96"
   inkscape:export-ydpi="96"><metadata
     id="metadata8"><rdf:RDF><cc:Work
         rdf:about=""><dc:format>image/svg+xml</dc:format><dc:type
           rdf:resource="http://purl.org/dc/dcmitype/StillImage" /><dc:title /></cc:Work></rdf:RDF></metadata><defs
     id="defs6" /><sodipodi:namedview
     pagecolor="#ffffff"
     bordercolor="#666666"
     borderopacity="1"
     objecttolerance="10"
     gridtolerance="10"
     guidetolerance="10"
     inkscape:pageopacity="0"
     inkscape:pageshadow="2"
     inkscape:window-width="1366"
     inkscape:window-height="723"
     id="namedview4"
     showgrid="false"
     inkscape:zoom="1.0012832"
     inkscape:cx="-78.880145"
     inkscape:cy="129.61468"
     inkscape:window-x="412"
     inkscape:window-y="9"
     inkscape:window-maximized="0"
     inkscape:current-layer="g12" /><g
     id="g10"
     inkscape:groupmode="layer"
     inkscape:label="ink_ext_XXXXXX"
     transform="matrix(1.3333333,0,0,-1.3333333,-386.96132,801.01494)"><g
       id="g12"
       transform="scale(0.1)"><path
         d="m 4027.2193,6006.6755 c -621.244,0 -1125.0093,-505.8893 -1125.0093,-1129.9616 0,-499.2467 322.3494,-922.8045 769.35,-1072.2174 56.2244,-10.4598 76.8661,24.5123 76.8661,54.3575 0,26.9448 -1.0433,115.9563 -1.5277,210.3755 -312.9786,-68.3538 -379.0209,133.3208 -379.0209,133.3208 -51.1757,130.6076 -124.9119,165.3365 -124.9119,165.3365 -102.072,70.1314 7.694,68.6906 7.694,68.6906 112.9704,-7.9524 172.4549,-116.4615 172.4549,-116.4615 100.3395,-172.7276 263.1817,-122.7861 327.3796,-93.914 10.0972,73.0317 39.2526,122.8984 71.4261,151.0969 -249.8799,28.5728 -512.5585,125.4619 -512.5585,558.4317 0,123.3662 43.9474,224.1661 115.9139,303.2978 -11.6808,28.4792 -50.1883,143.3877 10.8984,299.0316 0,0 94.4711,30.3691 309.4577,-115.8254 89.7391,25.0363 185.98,37.5918 281.5876,38.0222 95.6075,-0.4304 191.9231,-12.9859 281.8298,-38.0222 214.7258,146.1945 309.0665,115.8254 309.0665,115.8254 61.2358,-155.6439 22.7095,-270.5524 11.0287,-299.0316 72.1343,-79.1317 115.7836,-179.9316 115.7836,-303.2978 0,-433.9989 -263.1815,-529.5596 -513.6949,-557.5335 40.3518,-35.0657 76.3072,-103.8312 76.3072,-209.2529 0,-151.1904 -1.3042,-272.8726 -1.3042,-310.0901 0,-30.0697 20.2506,-65.3038 77.276,-54.2078 446.7584,149.5813 768.6981,572.9894 768.6981,1072.0677 0,624.0723 -503.6908,1129.9616 -1124.9908,1129.9616"
         style="fill:#000000;fill-opacity:1;fill-rule:evenodd;stroke:none;stroke-width:1.86706424"
         id="path18"
         inkscape:connector-curvature="0" /><path
         d="m 3328.3081,4384.297 c -2.4777,-5.6322 -11.271,-7.2976 -19.2818,-3.443 -8.1597,3.6862 -12.7426,11.3393 -10.0972,16.9715 2.4219,5.7632 11.2337,7.3724 19.3748,3.5365 8.1785,-3.7049 12.8359,-11.4328 10.0042,-17.065 v 0"
         style="fill:#000000;fill-opacity:1;fill-rule:nonzero;stroke:none;stroke-width:1.86706424"
         id="path20"
         inkscape:connector-curvature="0" /><path
         d="m 3373.8763,4333.2515 c -5.3654,-4.996 -15.8538,-2.6758 -22.9704,5.2205 -7.3587,7.8777 -8.7373,18.4124 -3.2975,23.4832 5.5331,4.9773 15.7049,2.6384 23.0823,-5.2205 7.3586,-7.9712 8.7931,-18.4311 3.1856,-23.4832 v 0"
         style="fill:#000000;fill-opacity:1;fill-rule:nonzero;stroke:none;stroke-width:1.86706424"
         id="path22"
         inkscape:connector-curvature="0" /><path
         d="m 3418.2336,4268.1722 c -6.893,-4.8089 -18.164,-0.2994 -25.1314,9.7488 -6.893,10.0482 -6.893,22.0985 0.1491,26.9261 6.986,4.8277 18.0893,0.4678 25.15,-9.4868 6.8743,-10.2166 6.8743,-22.2669 -0.1677,-27.1881 v 0"
         style="fill:#000000;fill-opacity:1;fill-rule:nonzero;stroke:none;stroke-width:1.86706424"
         id="path24"
         inkscape:connector-curvature="0" /><path
         d="m 3479.0036,4205.3009 c -6.1665,-6.8297 -19.3003,-4.996 -28.9133,4.3224 -9.8363,9.1126 -12.575,22.0424 -6.39,28.8722 6.2409,6.8485 19.4495,4.9212 29.1368,-4.3224 9.762,-9.0939 12.7428,-22.1172 6.1665,-28.8722 v 0"
         style="fill:#000000;fill-opacity:1;fill-rule:nonzero;stroke:none;stroke-width:1.86706424"
         id="path26"
         inkscape:connector-curvature="0" /><path
         d="m 3562.8372,4168.7944 c -2.7199,-8.8506 -15.3694,-12.8736 -28.1121,-9.1126 -12.7242,3.8734 -21.0517,14.2396 -18.4807,23.1838 2.6454,8.9068 15.3508,13.0982 28.1866,9.0752 12.7055,-3.8546 21.0517,-14.146 18.4062,-23.1464 v 0"
         style="fill:#000000;fill-opacity:1;fill-rule:nonzero;stroke:none;stroke-width:1.86706424"
         id="path28"
         inkscape:connector-curvature="0" /><path
         d="m 3654.9051,4162.0208 c 0.3167,-9.3184 -10.4885,-17.0464 -23.8647,-17.2148 -13.4505,-0.2993 -24.3303,7.2415 -24.4794,16.4102 0,9.412 10.5631,17.0651 24.0137,17.2896 13.3761,0.262 24.3304,-7.2227 24.3304,-16.485 v 0"
         style="fill:#000000;fill-opacity:1;fill-rule:nonzero;stroke:none;stroke-width:1.86706424"
         id="path30"
         inkscape:connector-curvature="0" /><path
         d="m 3740.583,4176.672 c 1.6022,-9.0938 -7.6941,-18.431 -20.977,-20.9196 -13.0595,-2.3951 -25.1501,3.2184 -26.8081,12.2374 -1.6209,9.3184 7.8431,18.6556 20.8839,21.0694 13.3016,2.3202 25.2059,-3.1436 26.9012,-12.3872 v 0"
         style="fill:#000000;fill-opacity:1;fill-rule:nonzero;stroke:none;stroke-width:1.86706424"
         id="path32"
         inkscape:connector-curvature="0" /></g></g></svg>