<?xml version="1.0" encoding="UTF-8" standalone="no"?>
<svg
   xmlns:dc="http://purl.org/dc/elements/1.1/"
   xmlns:cc="http://creativecommons.org/ns#"
   xmlns:rdf="http://www.w3.org/1999/02/22-rdf-syntax-ns#"
   xmlns:svg="http://www.w3.org/2000/svg"
   xmlns="http://www.w3.org/2000/svg"
   xmlns:xlink="http://www.w3.org/1999/xlink"
   xmlns:sodipodi="http://sodipodi.sourceforge.net/DTD/sodipodi-0.dtd"
   xmlns:inkscape="http://www.inkscape.org/namespaces/inkscape"
   width="300"
   height="300"
   version="1.1"
   id="svg28"
   sodipodi:docname="Instagram_logo_2016.svg"
   inkscape:export-filename="/Users/cheyennegoh/Desktop/instagram-green.png"
   inkscape:export-xdpi="96"
   inkscape:export-ydpi="96"
   inkscape:version="0.92.2 5c3e80d, 2017-08-06">
  <metadata
     id="metadata32">
    <rdf:RDF>
      <cc:Work
         rdf:about="">
        <dc:format>image/svg+xml</dc:format>
        <dc:type
           rdf:resource="http://purl.org/dc/dcmitype/StillImage" />
        <dc:title />
      </cc:Work>
    </rdf:RDF>
  </metadata>
  <sodipodi:namedview
     pagecolor="#ffffff"
     bordercolor="#666666"
     borderopacity="1"
     objecttolerance="10"
     gridtolerance="10"
     guidetolerance="10"
     inkscape:pageopacity="0"
     inkscape:pageshadow="2"
     inkscape:window-width="1366"
     inkscape:window-height="723"
     id="namedview30"
     showgrid="false"
     inkscape:zoom="1.7878788"
     inkscape:cx="-2.3059179"
     inkscape:cy="150.29694"
     inkscape:window-x="160"
     inkscape:window-y="0"
     inkscape:window-maximized="0"
     inkscape:current-layer="svg28" />
  <defs
     id="defs20">
    <linearGradient
       id="b">
      <stop
         offset="0"
         stop-color="#3771c8"
         id="stop2" />
      <stop
         stop-color="#3771c8"
         offset=".128"
         id="stop4" />
      <stop
         offset="1"
         stop-color="#60f"
         stop-opacity="0"
         id="stop6" />
    </linearGradient>
    <linearGradient
       id="a">
      <stop
         offset="0"
         stop-color="#fd5"
         id="stop9" />
      <stop
         offset=".1"
         stop-color="#fd5"
         id="stop11" />
      <stop
         offset=".5"
         stop-color="#ff543e"
         id="stop13" />
      <stop
         offset="1"
         stop-color="#c837ab"
         id="stop15" />
    </linearGradient>
    <radialGradient
       id="c"
       cx="158.429"
       cy="578.08801"
       r="65"
       xlink:href="#a"
       gradientUnits="userSpaceOnUse"
       gradientTransform="matrix(0,-1.98198,1.8439,0,-1031.402,454.004)"
       fx="158.429"
       fy="578.08801" />
    <radialGradient
       id="d"
       cx="147.694"
       cy="473.45499"
       r="65"
       xlink:href="#b"
       gradientUnits="userSpaceOnUse"
       gradientTransform="matrix(0.17394,0.86872,-3.5818,0.71718,1648.348,-458.493)"
       fx="147.694"
       fy="473.45499" />
  </defs>
  <path
     id="path839"
     style="opacity:1;fill:#000000;fill-opacity:1;fill-rule:evenodd;stroke:none;stroke-width:2.50812531"
     d="M 300,150 A 150,150 0 0 1 150,300 150,150 0 0 1 0,150 150,150 0 0 1 150,0 150,150 0 0 1 300,150 Z M 149.94909,53.117624 c -26.32757,0 -29.63164,0.115118 -39.97201,0.585687 -10.320181,0.472588 -17.364561,2.106451 -23.528393,4.503726 -6.375891,2.476039 -11.784391,5.788197 -17.172695,11.178533 -5.392344,5.38831 -8.704495,10.79682 -11.188608,17.17071 -2.40333,6.16586 -4.039209,13.21227 -4.503718,23.52843 C 53.121176,120.4251 53,123.7312 53,150.05881 c 0,26.32761 0.117137,29.62159 0.585685,39.96199 0.474607,10.32019 2.108467,17.36459 4.503718,23.52843 2.478054,6.3759 5.790206,11.78441 11.18053,17.17273 5.386284,5.39235 10.794785,8.71259 17.166636,11.18863 6.167871,2.39727 13.214271,4.03114 23.532431,4.50372 10.34037,0.47057 13.64243,0.58569 39.96797,0.58569 26.32958,0 29.62356,-0.11512 39.96393,-0.58569 10.32018,-0.47258 17.37263,-2.10645 23.5405,-4.50372 6.37388,-2.47604 11.7743,-5.79628 17.16058,-11.18863 5.39235,-5.38832 8.7045,-10.79683 11.18861,-17.17071 2.38314,-6.16586 4.01901,-13.21228 4.50372,-23.52843 0.46451,-10.3404 0.58569,-13.6364 0.58569,-39.96401 0,-26.32761 -0.12118,-29.63169 -0.58569,-39.97208 -0.48471,-10.3202 -2.12058,-17.36459 -4.50372,-23.52843 -2.48411,-6.37591 -5.79626,-11.78442 -11.18861,-17.17273 -5.39234,-5.392356 -10.78468,-8.704513 -17.16663,-11.178533 -6.17999,-2.397275 -13.22841,-4.031138 -23.54858,-4.503726 -10.34038,-0.470569 -13.63234,-0.585687 -39.96798,-0.585687 z m -8.69642,17.469606 c 2.58105,-0.004 5.46101,0 8.69642,0 25.88324,0 28.95103,0.0929 39.17224,0.55742 9.45175,0.43219 14.58154,2.01153 17.99871,3.33841 4.52392,1.75706 7.74923,3.85745 11.14014,7.25039 3.39294,3.39294 5.49332,6.62432 7.25442,11.14824 1.32688,3.41314 2.90823,8.54294 3.3384,17.99471 0.46451,10.21921 0.56549,13.28902 0.56549,39.1602 0,25.87118 -0.10098,28.94098 -0.56549,39.1602 -0.43219,9.45176 -2.01152,14.58157 -3.3384,17.99471 -1.75706,4.52392 -3.86148,7.74519 -7.25442,11.13611 -3.39293,3.39295 -6.6142,5.49334 -11.14014,7.2504 -3.41313,1.33294 -8.54696,2.90823 -17.99871,3.34043 -10.21919,0.46451 -13.289,0.56549 -39.17224,0.56549 -25.88527,0 -28.95305,-0.10098 -39.17225,-0.56549 -9.45175,-0.43624 -14.581542,-2.01557 -18.000733,-3.34245 -4.523913,-1.75706 -7.75528,-3.85745 -11.148215,-7.2504 -3.392936,-3.39294 -5.493324,-6.61623 -7.25442,-11.14217 -1.326879,-3.41314 -2.908229,-8.54295 -3.338405,-17.99471 -0.46451,-10.21922 -0.557411,-13.28902 -0.557411,-39.17636 0,-25.88734 0.0929,-28.94098 0.557411,-39.1602 0.432195,-9.45177 2.011526,-14.58157 3.338405,-17.99875 1.757056,-4.52392 3.861484,-7.75529 7.25442,-11.14823 3.392935,-3.39294 6.624302,-5.49334 11.148215,-7.25444 3.417171,-1.33294 8.548983,-2.90823 18.000733,-3.34245 8.94281,-0.40392 12.40845,-0.52509 30.47583,-0.54529 z m 60.44271,16.09628 c -6.42233,0 -11.63291,5.20453 -11.63291,11.6289 0,6.42236 5.21058,11.63295 11.63291,11.63295 6.42235,0 11.63293,-5.21059 11.63293,-11.63295 0,-6.42235 -5.21058,-11.63294 -11.63293,-11.63294 z m -51.74629,13.59196 c -27.49288,0 -49.78325,22.29042 -49.78325,49.78334 0,27.49293 22.29037,49.77324 49.78325,49.77324 27.49287,0 49.77517,-22.28031 49.77517,-49.77324 0,-27.49292 -22.28432,-49.78334 -49.77719,-49.78334 z m 0,17.46961 c 17.84522,0 32.31367,14.46646 32.31367,32.31373 0,17.84526 -14.46845,32.31373 -32.31367,32.31373 -17.84725,0 -32.31367,-14.46847 -32.31367,-32.31373 0,-17.84727 14.46642,-32.31373 32.31367,-32.31373 z" />
</svg>
