<?xml version="1.0" encoding="UTF-8" standalone="no"?>
<!-- Generator: Adobe Illustrator 16.0.0, SVG Export Plug-In . SVG Version: 6.00 Build 0)  -->

<svg
   version="1.1"
   id="Layer_1"
   x="0px"
   y="0px"
   width="300"
   height="300"
   viewBox="0 0 299.99999 300.00001"
   enable-background="new 0 0 266.893 266.895"
   xml:space="preserve"
   sodipodi:docname="facebook.svg.2021_06_27_20_42_18.0.svg"
   inkscape:export-filename="/Users/cheyennegoh/Downloads/facebook-white.png"
   inkscape:export-xdpi="96"
   inkscape:export-ydpi="96"
   inkscape:version="1.1 (c4e8f9e, 2021-05-24)"
   xmlns:inkscape="http://www.inkscape.org/namespaces/inkscape"
   xmlns:sodipodi="http://sodipodi.sourceforge.net/DTD/sodipodi-0.dtd"
   xmlns="http://www.w3.org/2000/svg"
   xmlns:svg="http://www.w3.org/2000/svg"
   xmlns:rdf="http://www.w3.org/1999/02/22-rdf-syntax-ns#"
   xmlns:cc="http://creativecommons.org/ns#"
   xmlns:dc="http://purl.org/dc/elements/1.1/"><metadata
     id="metadata9"><rdf:RDF><cc:Work
         rdf:about=""><dc:format>image/svg+xml</dc:format><dc:type
           rdf:resource="http://purl.org/dc/dcmitype/StillImage" /><dc:title /></cc:Work></rdf:RDF></metadata><defs
     id="defs7" /><sodipodi:namedview
     pagecolor="#ffffff"
     bordercolor="#666666"
     borderopacity="1"
     objecttolerance="10"
     gridtolerance="10"
     guidetolerance="10"
     inkscape:pageopacity="0"
     inkscape:pageshadow="2"
     inkscape:window-width="1366"
     inkscape:window-height="724"
     id="namedview5"
     showgrid="false"
     inkscape:zoom="1.2505083"
     inkscape:cx="11.595285"
     inkscape:cy="140.74277"
     inkscape:window-x="16"
     inkscape:window-y="25"
     inkscape:window-maximized="0"
     inkscape:current-layer="Layer_1"
     inkscape:pagecheckerboard="0" /><path
     id="path1525"
     style="fill:#000000;stroke-width:0.939203"
     d="M 150 0 C 146.49111 0 143.02292 0.16529004 139.57422 0.40234375 C 147.08849 0.39964163 152.88763 0.39792261 160.4082 0.40039062 C 156.96528 0.16413892 153.5029 1.9704107e-17 150 0 z M 160.4082 0.40039062 C 161.82139 0.4973626 163.23652 0.58680581 164.63867 0.72265625 C 232.86293 0.70616346 263.80346 0.61223618 225.83398 0.48828125 C 207.84191 0.42954443 184.02536 0.40814102 160.4082 0.40039062 z M 164.63867 0.72265625 C 158.37749 0.72416985 157.43208 0.734375 150.46289 0.734375 C 143.0445 0.734375 141.98808 0.7224144 135.37305 0.72070312 C 59.39694 8.0758059 4.38228e-16 72.093979 0 150 C 0 232.84271 67.15729 300 150 300 C 232.84271 300 300 232.84271 300 150 C 300 72.097989 240.60916 8.083215 164.63867 0.72265625 z M 135.37305 0.72070312 C 136.76548 0.58590448 138.17091 0.49880322 139.57422 0.40234375 C 116.31712 0.41070696 92.824449 0.43039134 75.091797 0.48828125 C 37.346921 0.61150294 68.058323 0.70328914 135.37305 0.72070312 z M 198.0332 76.302734 C 201.91529 76.346755 205.78602 77.027671 208.48047 78.332031 C 212.05934 80.064532 218.08594 86.492759 218.08594 88.578125 C 218.08594 88.961095 216.37903 89.955165 214.29492 90.789062 L 210.50586 92.306641 L 207.00781 88.628906 C 200.86259 82.168935 192.90447 82.64056 187.63672 89.777344 C 185.90105 92.128837 185.65277 93.968597 185.41406 106.21289 C 185.18483 117.97045 185.39166 120.47646 186.82227 123.22461 C 189.14446 127.68564 194.39891 130.2546 199.55859 129.45312 C 205.97499 128.45643 209.03447 124.98745 210.12891 117.4668 L 210.77148 113.05273 L 204.80078 112.76953 L 198.83203 112.48828 L 198.83203 108.73242 L 198.83203 104.97461 L 209.16211 104.97461 L 219.49414 104.97461 L 219.41016 113.12891 C 219.35666 118.39401 218.756 122.78231 217.71289 125.51367 C 215.76061 130.62564 210.12858 135.95062 205.23828 137.30859 C 200.7776 138.54724 193.17029 138.48771 189.43945 137.18359 C 180.91115 134.2025 176.86564 127.80959 175.86523 115.73242 C 175.11651 106.69366 175.97518 92.19051 177.47852 88.486328 C 179.10629 84.475523 183.51345 79.914347 187.52148 78.09375 C 190.25746 76.850967 194.15111 76.258714 198.0332 76.302734 z M 120.47461 112.64844 C 133.82019 112.75846 139.32567 113.62236 145.32031 115.86523 C 168.90594 124.68975 168.27707 158.5441 144.30859 170.34375 C 140.97813 171.98333 138.25195 173.52715 138.25195 173.77344 C 138.25195 174.5906 150.64923 193.16588 155.01758 198.89453 C 164.98779 211.96944 174.75253 219.98408 180.75195 220.01758 C 183.3964 220.03228 182.98556 225.28557 180.2832 226.00977 C 176.24978 227.09069 167.81183 226.53153 162.98438 224.86328 C 153.97959 221.75146 149.35719 216.97671 136.34766 197.35156 C 132.36055 191.33693 127.67941 183.83402 125.94531 180.67969 L 122.79297 174.94531 L 115.96484 174.94531 L 109.13672 174.94531 L 109.24805 192.08594 C 109.40579 216.41812 109.64478 217.05839 119.13281 218.60352 C 125.09689 219.57477 125.59493 219.83661 125.86719 222.1543 L 126.16211 224.6582 L 103.56055 224.92578 L 80.960938 225.19336 L 80.960938 222.26172 C 80.961652 219.45028 81.155713 219.30337 85.695312 218.70117 C 91.497587 217.93147 93.78799 215.80646 94.566406 210.46875 C 94.89199 208.23613 95.028355 187.88106 94.869141 165.23633 L 94.580078 124.06445 L 92.083984 121.91797 C 90.711137 120.73753 87.647615 119.48074 85.275391 119.125 C 81.316558 118.53133 80.960937 118.25937 80.960938 115.81445 L 80.960938 113.15039 L 104.20703 112.76758 C 110.70648 112.66026 116.02608 112.61176 120.47461 112.64844 z M 109.13672 121.41016 L 109.13672 143.32617 C 109.13672 155.37928 109.41929 165.52283 109.76367 165.86719 C 110.92126 167.0248 126.63952 166.50499 131.10156 165.16211 C 142.74305 161.65854 149.05304 150.69024 146.66602 138.10352 C 145.32959 131.05655 141.91954 126.41611 136.08008 123.69727 C 131.80599 121.70728 129.85839 121.42797 120.17383 121.41992 L 109.13672 121.41016 z " /></svg>
